<?xml version="1.0" standalone="no"?>
<!DOCTYPE svg PUBLIC "-//W3C//DTD SVG 20010904//EN"
 "http://www.w3.org/TR/2001/REC-SVG-20010904/DTD/svg10.dtd">
<svg version="1.0" xmlns="http://www.w3.org/2000/svg"
 width="800.000000pt" height="800.000000pt" viewBox="0 0 800.000000 800.000000"
 preserveAspectRatio="xMidYMid meet">
<metadata>
Created by potrace 1.11, written by Peter Selinger 2001-2013
</metadata>
<g transform="translate(0.000000,800.000000) scale(0.100000,-0.100000)"
fill="#000000" stroke="none">
<path d="M3600 7563 c-353 -36 -664 -99 -955 -195 -1169 -386 -2078 -1268
-2429 -2357 -69 -214 -120 -451 -147 -691 -18 -156 -15 -537 5 -705 95 -783
437 -1476 1011 -2050 637 -638 1447 -1020 2415 -1142 197 -25 739 -24 940 0
806 100 1522 393 2105 861 760 611 1220 1434 1326 2376 17 150 14 527 -5 691
-101 874 -528 1664 -1220 2258 -170 145 -418 324 -293 211 86 -78 229 -240
323 -366 264 -353 429 -749 495 -1185 41 -271 28 -631 -32 -903 -116 -527
-401 -1018 -805 -1387 -306 -280 -666 -492 -1058 -623 -345 -116 -671 -163
-1059 -153 -672 17 -1282 236 -1793 645 -554 442 -890 1025 -995 1727 -18 117
-18 550 -1 660 79 493 231 860 516 1240 107 142 360 400 496 505 358 276 775
471 1205 564 107 24 108 24 50 24 -33 -1 -76 -3 -95 -5z"/>
<path d="M4390 7440 c-319 -39 -627 -152 -885 -325 -381 -256 -643 -637 -737
-1070 -25 -116 -35 -395 -19 -518 112 -839 852 -1473 1776 -1523 129 -7 333 7
461 31 817 156 1422 770 1504 1527 20 187 5 381 -45 571 -150 577 -635 1055
-1250 1233 -193 56 -324 75 -540 79 -104 2 -224 0 -265 -5z"/>
</g>
</svg>
