<?xml version="1.0" standalone="no"?>
<!DOCTYPE svg PUBLIC "-//W3C//DTD SVG 20010904//EN"
 "http://www.w3.org/TR/2001/REC-SVG-20010904/DTD/svg10.dtd">
<svg version="1.0" xmlns="http://www.w3.org/2000/svg"
 width="800.000000pt" height="800.000000pt" viewBox="0 0 800.000000 800.000000"
 preserveAspectRatio="xMidYMid meet">
<metadata>
Created by potrace 1.11, written by Peter Selinger 2001-2013
</metadata>
<g transform="translate(0.000000,800.000000) scale(0.100000,-0.100000)"
fill="#000000" stroke="none">
<path d="M3550 7565 c-1106 -118 -2077 -628 -2732 -1436 -674 -831 -921 -1894
-678 -2915 310 -1303 1402 -2350 2814 -2699 344 -84 632 -118 1016 -118 391 0
682 35 1035 124 1513 380 2636 1553 2849 2974 49 322 49 674 0 990 -91 594
-336 1146 -725 1635 -115 143 -358 391 -509 517 -124 104 -317 249 -348 261
-9 3 47 -57 124 -134 159 -157 239 -254 359 -434 205 -306 335 -634 402 -1008
23 -132 26 -173 27 -407 0 -290 -8 -369 -71 -625 -252 -1041 -1172 -1857
-2303 -2044 -193 -32 -280 -38 -510 -38 -254 0 -399 14 -615 58 -556 116
-1050 373 -1443 750 -696 666 -976 1601 -751 2505 119 479 362 895 735 1259
395 385 884 644 1439 761 77 16 145 31 150 33 22 9 -148 3 -265 -9z"/>
<path d="M4505 7454 c-694 -38 -1311 -427 -1604 -1013 -266 -529 -215 -1165
132 -1651 301 -422 769 -699 1306 -774 146 -21 421 -21 560 0 727 106 1316
575 1525 1215 62 190 71 250 71 494 0 232 -12 318 -66 487 -178 557 -668 1009
-1272 1173 -188 51 -458 79 -652 69z"/>
</g>
</svg>
